<svg xmlns="http://www.w3.org/2000/svg" xmlns:xlink="http://www.w3.org/1999/xlink" viewBox="0,0,256,256" width="24px" height="24px" fill-rule="nonzero"><g fill="#ffffff" fill-rule="nonzero" stroke="none" stroke-width="1" stroke-linecap="butt" stroke-linejoin="miter" stroke-miterlimit="10" stroke-dasharray="" stroke-dashoffset="0" font-family="none" font-weight="none" font-size="none" text-anchor="none" style="mix-blend-mode: normal"><g transform="scale(10.66667,10.66667)"><path d="M14.44,0.98h-4.44c-4.34,0 -8,3.46 -8,7.55v3.49c0,3.39 1.02,5.59 3.12,6.72v2.3c0,0.78 0.47,1.48 1.18,1.78c0.25,0.11 0.5,0.16 0.76,0.16c0.49,0 0.98,-0.19 1.35,-0.55l2.96,-2.86h3.07c4.17,0 7.56,-3.39 7.56,-7.55v-3.49c0,-4.17 -3.39,-7.55 -7.56,-7.55zM16.82,14.69c-0.15,0.2 -0.33,0.42 -0.51,0.64c-0.52,0.6 -1.37,0.82 -2.11,0.51c-1.69,-0.69 -3.71,-2.09 -4.99,-3.27c-1.04,-0.97 -2.28,-3.23 -3.02,-4.69c-0.39,-0.78 -0.17,-1.72 0.53,-2.26l0.58,-0.45c0.42,-0.32 1.02,-0.23 1.32,0.2l1.14,1.61c0.27,0.39 0.2,0.92 -0.17,1.22l-0.31,0.26c-0.27,0.23 -0.39,0.59 -0.31,0.93c0.15,0.56 0.55,1.38 1.27,2.15c0.87,0.93 1.63,1.24 2.1,1.34c0.31,0.06 0.62,-0.06 0.83,-0.29l0.31,-0.35c0.31,-0.39 0.87,-0.47 1.27,-0.18l1.87,1.35c0.42,0.3 0.5,0.87 0.2,1.28zM12.5,8.48c0,-0.28 0.22,-0.5 0.5,-0.5c1.2,0 2,0.8 2,2c0,0.28 -0.22,0.5 -0.5,0.5c-0.28,0 -0.5,-0.22 -0.5,-0.5c0,-0.64 -0.35,-1 -1,-1c-0.28,0 -0.5,-0.22 -0.5,-0.5zM16.5,10.48c-0.28,0 -0.5,-0.22 -0.5,-0.5c0,-1.51 -1.49,-3 -3,-3c-0.28,0 -0.5,-0.22 -0.5,-0.5c0,-0.28 0.22,-0.5 0.5,-0.5c2.06,0 4,1.94 4,4c0,0.28 -0.22,0.5 -0.5,0.5zM18.5,10.48c-0.28,0 -0.5,-0.22 -0.5,-0.5c0,-2.37 -2.05,-5 -5,-5c-0.28,0 -0.5,-0.22 -0.5,-0.5c0,-0.28 0.22,-0.5 0.5,-0.5c3.54,0 6,3.16 6,6c0,0.28 -0.22,0.5 -0.5,0.5z"></path></g></g></svg>